<?xml version="1.0" encoding="utf-8"?>
<!-- Generator: Adobe Illustrator 18.1.0, SVG Export Plug-In . SVG Version: 6.00 Build 0)  -->
<svg version="1.1" id="Layer_1" xmlns="http://www.w3.org/2000/svg" xmlns:xlink="http://www.w3.org/1999/xlink" x="0px" y="0px"
	 viewBox="0 0 100 103.3" enable-background="new 0 0 100 103.3" xml:space="preserve">
<g>
	<path d="M41.8,87.4c-1.4-0.6-2.7-1.7-4-2.5c-0.2-0.1-0.7,0-1,0.1c-1.1,0.5-2.1,1.1-3.2,1.5c-5,1.7-9.7,1.2-13.9-2.4
		c-4-3.5-5.5-8-5.5-13.2c0-6.8-0.1-13.6,0-20.3c0-3,0.2-6.1,0.6-9.1c0.4-3.7,2.3-6.8,5.3-8.8c4.4-3.1,9-2.8,13.5,0.2
		c2.1,1.4,4.2,1.4,6.4,0c4.6-3.1,9.3-3.1,13.9,0c2.1,1.4,4.1,1.3,6.3,0c1.3-0.8,2.6-1.5,4-1.9c3.5-1,6.8-0.2,9.8,1.9
		c1.5,1.1,3.1,1.4,4.8,0.8c0.9-0.3,1.7-0.9,2.6-1.4c1.8-1.1,3.9-1.7,6-1.6c5.4,0.1,10.2,3.7,11.5,9c0.7,3.1,1,6.3,1,9.5
		c0.1,7.4,0.1,14.9,0,22.3c0,5.6-2.2,10.2-6.8,13.6c-0.3,0.2-0.6,0.8-0.6,1.2c-0.1,1.8,0,3.6,0,5.4c-0.1,6.3-5.2,11.6-11.5,11.7
		c-7.8,0.1-15.5,0.1-23.3,0c-4.7-0.1-8.2-2.5-10.3-6.8c-1.2-2.4-1.4-5-1-7.6C44.8,88.3,43.2,88.1,41.8,87.4z M20.6,71.9
		c0,2.8,0.9,5.2,2.9,7.2c2.7,2.7,7.8,2.7,10.6,0c0.3-0.2,0.3-0.8,0.3-1.2c0-5.7,0-11.5,0-17.2c0-0.6,0-1.2,0.1-1.8
		c0.3-1.5,1.7-2.5,3.2-2.5c1.5,0.1,2.9,1.3,3,2.8c0.1,1.4,0.1,2.8,0.1,4.2c0,4.9,0,9.8,0,14.7c0,0.6,0.3,1.4,0.8,1.8
		c3.3,3.2,8.5,3.1,11.7-0.3c0.3-0.3,0.5-0.9,0.5-1.4c0-6,0-12,0-18c0-1.1,0.1-2.2,1.1-3c1-0.8,2.1-1,3.3-0.5
		c1.3,0.6,1.9,1.6,1.9,3.1c0,4.9,0,9.7,0,14.6c0,1.1,0.1,2.1,0,3.2c-0.1,1.3,0.4,2.1,1.3,2.8c3.2,2.7,8.6,2.4,11.3-0.8
		c0.3-0.3,0.4-0.9,0.4-1.4c0-5.9,0-11.9,0-17.8c0-0.9,0.2-1.9,0.7-2.6c0.7-1.2,2.3-1.6,3.5-1.1c1.4,0.5,2.2,1.6,2.2,3.1
		c0,6,0,12,0,18c0,0.9,0.3,1.4,1,1.9c3.9,2.8,9.2,1.4,11.7-3.1c0.7-1.3,1.2-2.8,1.2-4.2c0.1-8.6,0.1-17.2,0-25.7
		c0-1.9-0.3-3.9-0.8-5.8c-1.1-3.7-5.2-5.1-8.4-2.9c-3.8,2.5-7.7,3.1-11.9,1.2c-0.8-0.3-1.5-0.8-2.2-1.3c-2-1.3-4.1-1.4-6.1,0
		c-3.2,2.2-6.7,3-10.5,1.8c-1.3-0.4-2.5-1.1-3.6-1.8c-2.1-1.3-4.1-1.4-6.2,0c-3.8,2.6-7.7,3.1-11.9,1.2c-0.7-0.3-1.3-0.7-1.9-1.1
		c-3.2-2.4-7.2-1.2-8.4,3.2c-0.6,2.2-0.7,4.5-0.8,6.8c-0.1,3.6,0,7.1,0,10.7C20.6,63.2,20.6,67.5,20.6,71.9z M57.1,85
		c-1.6,1.1-3.4,2-4.1,4.1c-1.4,3.9,1.2,7.7,5.4,7.7c7.4,0,14.7,0,22.1,0c3.4,0,5.7-2.3,5.7-5.6c0-1.2,0-2.3,0-3.6
		c-3.4,0-6.6-0.8-9.4-2.8C70.7,90,62.7,89.7,57.1,85z"/>
</g>
<g>
	<g>
		<path d="M46.2,23.6c-0.4,0-0.7-0.1-1.1-0.2c-1.7-0.6-2.6-2.5-2-4.2L48.4,4c0.6-1.7,2.5-2.6,4.2-2c1.7,0.6,2.6,2.5,2,4.2l-5.2,15.3
			C48.8,22.7,47.6,23.6,46.2,23.6z"/>
	</g>
	<g>
		<path d="M29.2,22.4c-1.5,0-2.9-1.1-3.2-2.7L22.9,3.9c-0.3-1.8,0.8-3.5,2.6-3.9c1.8-0.3,3.5,0.8,3.9,2.6l3.1,15.8
			c0.3,1.8-0.8,3.5-2.6,3.9C29.6,22.4,29.4,22.4,29.2,22.4z"/>
	</g>
	<g>
		<path d="M13.9,29.9c-0.9,0-1.8-0.4-2.5-1.1L0.8,16.6c-1.2-1.4-1-3.4,0.3-4.6c1.4-1.2,3.4-1,4.6,0.3l10.6,12.2
			c1.2,1.4,1,3.4-0.3,4.6C15.4,29.6,14.6,29.9,13.9,29.9z"/>
	</g>
</g>
</svg>
