<?xml version="1.0" encoding="utf-8"?>
<!-- Generator: Adobe Illustrator 18.1.0, SVG Export Plug-In . SVG Version: 6.00 Build 0)  -->
<svg version="1.1" id="Layer_1" xmlns="http://www.w3.org/2000/svg" xmlns:xlink="http://www.w3.org/1999/xlink" x="0px" y="0px"
	 viewBox="0 0 211.5 70.8" enable-background="new 0 0 211.5 70.8" xml:space="preserve">

<g>
	<path d="M54.2,59.9c-1-0.4-1.8-1.1-2.8-1.7c-0.2-0.1-0.5,0-0.7,0.1c-0.7,0.3-1.4,0.8-2.2,1c-3.4,1.2-6.7,0.8-9.5-1.6
		c-2.7-2.4-3.8-5.5-3.8-9c0-4.6,0-9.3,0-13.9c0-2.1,0.2-4.2,0.4-6.3c0.3-2.5,1.6-4.6,3.6-6.1c3-2.1,6.2-1.9,9.2,0.1
		c1.5,1,2.9,1,4.4,0c3.2-2.1,6.4-2.1,9.5,0c1.4,1,2.8,0.9,4.3,0c0.9-0.5,1.8-1.1,2.8-1.3c2.4-0.7,4.7-0.2,6.7,1.3
		c1,0.7,2.1,1,3.3,0.5c0.6-0.2,1.2-0.6,1.8-1c1.3-0.8,2.6-1.1,4.1-1.1c3.7,0.1,7,2.5,7.8,6.2c0.5,2.1,0.7,4.3,0.7,6.5
		c0.1,5.1,0,10.2,0,15.3c0,3.9-1.5,7-4.7,9.3c-0.2,0.2-0.4,0.5-0.4,0.8c0,1.2,0,2.5,0,3.7c-0.1,4.3-3.6,7.9-7.9,8
		c-5.3,0.1-10.7,0.1-16,0c-3.2-0.1-5.6-1.7-7.1-4.6c-0.8-1.7-1-3.4-0.7-5.2C56.3,60.5,55.2,60.4,54.2,59.9z M39.8,49.3
		c0,1.9,0.6,3.6,2,4.9c1.9,1.8,5.4,1.8,7.3,0c0.2-0.2,0.2-0.5,0.2-0.8c0-3.9,0-7.9,0-11.8c0-0.4,0-0.8,0.1-1.2
		c0.2-1,1.2-1.7,2.2-1.7c1,0.1,2,0.9,2,1.9c0.1,1,0,1.9,0,2.9c0,3.4,0,6.7,0,10.1c0,0.4,0.2,0.9,0.5,1.2c2.3,2.2,5.8,2.1,8-0.2
		c0.2-0.2,0.3-0.6,0.3-0.9c0-4.1,0-8.2,0-12.3c0-0.8,0.1-1.5,0.8-2c0.7-0.5,1.4-0.7,2.3-0.4c0.9,0.4,1.3,1.1,1.3,2.1
		c0,3.3,0,6.7,0,10c0,0.7,0.1,1.5,0,2.2c-0.1,0.9,0.3,1.4,0.9,1.9c2.2,1.9,5.9,1.6,7.7-0.6c0.2-0.2,0.3-0.6,0.3-1
		c0-4.1,0-8.1,0-12.2c0-0.6,0.2-1.3,0.5-1.8c0.5-0.8,1.6-1.1,2.4-0.8c0.9,0.3,1.5,1.1,1.5,2.1c0,4.1,0,8.2,0,12.3
		c0,0.6,0.2,1,0.7,1.3c2.7,1.9,6.3,1,8-2.1c0.5-0.9,0.8-1.9,0.8-2.9c0.1-5.9,0.1-11.8,0-17.6c0-1.3-0.2-2.7-0.6-3.9
		c-0.7-2.5-3.5-3.5-5.7-2c-2.6,1.7-5.3,2.1-8.2,0.8c-0.5-0.2-1-0.6-1.5-0.9c-1.4-0.9-2.8-0.9-4.2,0c-2.2,1.5-4.6,2.1-7.2,1.2
		c-0.9-0.3-1.7-0.8-2.5-1.2c-1.4-0.9-2.8-0.9-4.2,0c-2.6,1.8-5.3,2.1-8.2,0.9c-0.5-0.2-0.9-0.5-1.3-0.8c-2.2-1.6-5-0.8-5.8,2.2
		c-0.4,1.5-0.5,3.1-0.5,4.6c-0.1,2.4,0,4.9,0,7.3C39.8,43.3,39.8,46.3,39.8,49.3z M64.8,58.2c-1.1,0.8-2.3,1.4-2.8,2.8
		c-0.9,2.7,0.8,5.3,3.7,5.3c5,0,10.1,0,15.1,0c2.3,0,3.9-1.6,3.9-3.9c0-0.8,0-1.6,0-2.5c-2.4,0-4.5-0.5-6.4-1.9
		C74.1,61.7,68.6,61.5,64.8,58.2z"/>
</g>
<g>
	<path d="M21.1,64.9h-19c-0.8,0-1.3-0.2-1.7-0.5C0.2,64,0,63.5,0,62.7v-7c0-0.8,0.2-1.3,0.5-1.7c0.3-0.3,0.9-0.5,1.7-0.5h16.1
		c0.5,0,0.9-0.2,1.2-0.5c0.3-0.3,0.4-0.8,0.4-1.2c0-0.7-0.1-1.2-0.4-1.5c-0.3-0.3-0.7-0.5-1.2-0.5l-9-1.3c-2.8-0.4-5.1-1.3-6.8-2.8
		C0.8,44.3,0,41.9,0,38.6v-6.3c0-3.4,1.1-6,3.3-7.8c2.2-1.8,5.2-2.7,9.1-2.7h16.8c0.8,0,1.3,0.2,1.7,0.5c0.3,0.3,0.5,0.9,0.5,1.6V31
		c0,0.8-0.2,1.3-0.5,1.6c-0.3,0.3-0.9,0.5-1.7,0.5h-14c-0.5,0-0.9,0.2-1.2,0.5c-0.3,0.3-0.4,0.8-0.4,1.3s0.1,1,0.4,1.3
		c0.3,0.4,0.7,0.6,1.2,0.6l8.9,1.2c2.8,0.4,5.1,1.3,6.8,2.8c1.7,1.4,2.6,3.8,2.6,7.2v6.3c0,3.4-1.1,6-3.3,7.8S25,64.9,21.1,64.9z"/>
</g>
<path d="M133.9,42.8c-0.4-1.6-1-3.4-1.8-5.5l-5.2-13.6c-0.2-0.7-0.6-1.2-1.1-1.5c-0.5-0.3-1.1-0.5-1.9-0.5h-16.1
	c-0.8,0-1.5,0.2-2,0.5c-0.5,0.3-0.9,0.8-1.1,1.5l-5.2,13.6c-0.8,2.1-1.4,3.9-1.8,5.5c-0.4,1.6-0.6,2.9-0.6,4.1v15.8
	c0,0.8,0.2,1.3,0.5,1.7s0.9,0.5,1.7,0.5h8.8c0.8,0,1.3-0.2,1.6-0.5s0.5-0.9,0.5-1.7v-8.4h10.6v8.4c0,0.8,0.2,1.3,0.6,1.7
	c0.4,0.3,1,0.5,1.8,0.5h9.1c0.8,0,1.3-0.2,1.6-0.5s0.5-0.9,0.5-1.7V46.9C134.4,45.7,134.2,44.3,133.9,42.8z M110.9,43.4l2.8-9.1
	c0.2-0.4,0.3-0.6,0.5-0.8c0.2-0.2,0.4-0.2,0.6-0.2h1.5c0.2,0,0.5,0.1,0.6,0.2c0.2,0.2,0.3,0.4,0.5,0.8l2.8,9.1H110.9z"/>
<g>
	<path d="M168.6,64.9h-14.6c-5,0-8.7-1-11.1-3c-2.4-2-3.6-5.1-3.6-9.2V34c0-4.2,1.2-7.2,3.6-9.3c2.4-2,6.1-3,11.1-3h14.6
		c0.8,0,1.3,0.2,1.7,0.5c0.3,0.3,0.5,0.9,0.5,1.6v7.3c0,0.8-0.2,1.3-0.5,1.6c-0.3,0.3-0.9,0.5-1.7,0.5h-12.1c-1.2,0-2.2,0.3-2.8,0.8
		c-0.6,0.5-0.9,1.3-0.9,2.2v14.3c0,1,0.3,1.7,0.9,2.2c0.6,0.5,1.5,0.7,2.8,0.7h12.1c0.8,0,1.3,0.2,1.7,0.5c0.3,0.3,0.5,0.9,0.5,1.7
		v7.1c0,0.8-0.2,1.3-0.5,1.7C169.9,64.7,169.3,64.9,168.6,64.9z"/>
</g>
<g>
	<path d="M186,64.9h-9.3c-0.8,0-1.3-0.2-1.7-0.5s-0.5-0.9-0.5-1.7V23.9c0-0.8,0.2-1.3,0.5-1.6s0.9-0.5,1.7-0.5h9.3
		c0.8,0,1.3,0.2,1.7,0.5c0.3,0.3,0.5,0.9,0.5,1.6v13.8h2.4l6.2-14c0.3-0.7,0.7-1.2,1.1-1.5c0.5-0.3,1.1-0.5,1.9-0.5h9.2
		c0.7,0,1.1,0.2,1.4,0.5s0.2,0.8-0.1,1.5l-6.1,14c2.2,0.1,4,0.9,5.4,2.4c1.3,1.5,2,3.4,2,5.8v16.9c0,0.8-0.2,1.3-0.5,1.7
		s-0.9,0.5-1.6,0.5h-9.2c-0.8,0-1.3-0.2-1.7-0.5s-0.5-0.9-0.5-1.7V51c0-0.6-0.2-1.1-0.5-1.5c-0.3-0.4-0.8-0.5-1.4-0.5h-7.9v13.7
		c0,0.8-0.2,1.3-0.5,1.7C187.3,64.7,186.7,64.9,186,64.9z"/>
</g>
<g>
	<g>
		<path d="M57.3,16.2c-0.2,0-0.5,0-0.7-0.1c-1.2-0.4-1.8-1.7-1.4-2.9l3.6-10.5c0.4-1.2,1.7-1.8,2.9-1.4C62.8,1.7,63.4,3,63,4.2
			l-3.6,10.5C59.1,15.6,58.2,16.2,57.3,16.2z"/>
	</g>
	<g>
		<path d="M45.6,15.4c-1.1,0-2-0.7-2.2-1.8L41.3,2.7c-0.2-1.2,0.6-2.4,1.8-2.6c1.2-0.2,2.4,0.6,2.6,1.8l2.1,10.9
			c0.2,1.2-0.6,2.4-1.8,2.6C45.9,15.3,45.8,15.4,45.6,15.4z"/>
	</g>
	<g>
		<path d="M35.1,20.5c-0.6,0-1.3-0.3-1.7-0.8l-7.3-8.3c-0.8-0.9-0.7-2.4,0.2-3.2c0.9-0.8,2.4-0.7,3.2,0.2l7.3,8.3
			c0.8,0.9,0.7,2.4-0.2,3.2C36.2,20.3,35.7,20.5,35.1,20.5z"/>
	</g>
</g>
</svg>
